<svg height="56" viewBox="0 0 56 56" width="56" xmlns="http://www.w3.org/2000/svg"><path d="m39.2989876 15.602776c4.7182048-.8454829 7.7762769-4.1968268 7.6544076-6.73583071-.1967311-4.09865794-3.1550386-6.15862055-9.5341594-6.18487652-.0261322-.00010756-.0535938-.00014327-.0823847-.00010713-.7095332.00089868-1.3059737-.53248695-1.3840399-1.23771303-.0725776-.65564424.4000912-1.24598474 1.0557354-1.31856241.0209641-.00232065.041986-.00408559.0630436-.00529295.0851618-.00490584.1625516-.00954284.2321681-.01393391 1.8982085-.11972999 3.9966807-.19009623 5.128103.07791441 4.7209984 1.11830735 7.3406997 3.96465658 7.5601537 8.53672115.1744988 3.6354755-2.5291056 7.1896581-6.3366753 10.0002439-.0368159.0271759-.0739764.0538908-.1114771.0801557.7368456 1.2893466 1.2084988 2.7299041 1.4149597 4.3216725.7181214 4.6075249.0494158 7.4738048.5624307 9.3723012.5130149 1.8984965 2.8457449 2.94007 3.7667098 5.0606172.9209649 2.1205473.750352 3.0494264.4809302 4.7196915-.1598284.9908469-.5195495 2.4382204-1.0791633 4.3421204-.126875.4316396-.5229838.7280765-.9728837.7280765h-3.3713045c-.5600385 0-1.0140394-.4540009-1.0140394-1.0140394l.0000133-.5095386c0-.5600311.4539949-1.0140261 1.0140261-1.0140261.0039273 0 .0078546.0000228.0117816.0000684.4548332.0052849.8428099-.1148655 1.1639299-.3604513.8107569-.6200498.8780532-.9661126.8780532-2.1722099 0-.8040649-.2926844-1.6130185-.8780532-2.4268608-2.3508233-1.5282884-4.315358-2.7217512-6.0489524-3.600118-.1785455 1.7624655-.529642 3.3645374-1.0532892 4.8062156-.5506346 1.5159782-1.5064353 3.4448003-2.867402 5.7864664-.1815191.3123199-.5154813.5044937-.8767193.5044937h-2.6675312c-.5498547 0-.9995262-.438224-1.0137023-.987896l-.0118876-.4609388c-.0142198-.5513651.4148532-1.0129875.9657855-1.03905l1.3951897-.0660011c.412153-.0194974.7713919-.2867889.9084891-.6759606l.0000231.0000081c.4621105-1.3117731.6518209-2.6012522.5691311-3.8684373-.0932128-1.4284453-.5683495-3.3769013-1.4254101-5.8453681-3.5601849-.0319132-10.7823638 1.5125249-12.4445306 1.6508171-.392492.0326553-.7954101.0304984-1.2087543-.0064706-.3277684 1.0214249-.5354083 2.1007221-.6229198 3.2378917-.1024605 1.3314239-.1118079 3.6720966-.0280423 7.0220179.0002112.0084478.0003169.0168979.0003169.0253483 0 .5600364-.4539992 1.0140394-1.0140355 1.0140394h-2.771061c-.5600385 0-1.0140394-.4540009-1.0140394-1.0140394v-.6959266c0-.5600385.4540009-1.0140394 1.0140394-1.0140394h.4267838c.1153466 0 .2297946-.0202849.3381148-.059928.5102345-.1867356.7724821-.7517416.5857465-1.2619761l.0000531-.0000194c-.5421412-1.4813407-.949087-2.9375355-1.2208375-4.3685842l-3.3320222 7.7988773c-.1595351.3734052-.5264392.6156358-.9324969.6156358h-3.68117463c-.56003849 0-1.01403939-.4540009-1.01403939-1.0140394v-.5179378c0-.4917174.35277728-.9125756.83693727-.9984542l1.75150192-.3106741c.22072878-.0391521.42226219-.150343.57309106-.3161885.71194257-.7828241 1.17081437-1.7584715 1.37661537-2.9269423.5073746-2.8807066.8294781-3.1924302 0-5.96276-.2709743-.9050128-2.25210848-1.7871152-3.52067037-5.7957396-.81207884-2.5661492-1.53244349-6.9253373-2.16109393-13.0775643l-.00004847.000005c-.04664056-.4564434-.3939688-.8246916-.84690787-.8979181l-1.94756986-.3148628c-.30050077-.0485819-.56328106-.229589-.71577748-.4930387l-1.5417299-2.6634562c-.01326959-.0229243-.02743229-.0453198-.04245552-.0671351-.15864707-.2303719-.2379706-.4677922-.2379706-.7122608 0-.1959777.05097642-.3983385.15292927-.6070823.05389001-.1103352.12737102-.2099657.21686636-.2940406l2.01494967-1.89290904c.14110222-.132556.24130962-.30273421.28878032-.49042401l.11444488-.45247923c.10206449-.40354292.32582762-.76590734.64091596-1.03790622.60508001-.52233314 1.05198524-.87218039 1.34071567-1.04954175.3613131-.22194744 1.10869102-.48752164 2.24213375-.79672259-.57591246-.80592402-.89197593-1.51119031-.94819043-2.11579885-.08432176-.90691283-.15647373-1.80484743.21131777-1.83994008.24519434-.0233951.86739579.6526619 1.86660436 2.02817102-.07857885-1.73764859.09685497-2.50523216.52630144-2.3027507.42944648.20248146 1.37270248 1.37362399 2.82976798 3.51342758l1.4224165 1.62022662c.690688.78674194 1.198799 1.71652322 1.487921 2.7227147.7181544 2.49929295 1.4017451 4.29887745 2.0507721 5.39875345 1.1581819 1.9627173 2.5794353 4.3780796 7.197006 4.0208888 4.6175708-.3571909 6.1695613-1.292937 9.2460279-1.7764095 1.4516217-.2281251 3.0357189-.3818617 4.7522915-.4612098.5596283-.025867 1.1120187.0225282 1.6450156.1388016z" fill-rule="evenodd" transform="translate(3 4)"/></svg>