<svg viewBox="0 0 1024 1063.951" xmlns="http://www.w3.org/2000/svg"><path d="M960.533 354.108L691.225 84.8l63.467-63.467L1024 290.64zm-205.84 0l-63.468-63.467 125.677-125.676 63.467 63.467zM691.987 547.83l-98.746-94.257 61.94-64.903 98.747 94.258zm-99.51 93.54l-94.258-94.257 63.467-63.467 94.258 94.258zm323.17-62.838L466.8 129.685l63.468-63.467 448.847 448.847zM610.746 146.696l287.89 287.89-422.185 422.187-184.88 44.885-147.85-147.85 44.886-184.88zm160.957 287.89L610.746 273.63 269.89 614.485l-26.93 111.36 76.573 76.572 111.36-26.93zM63.467 1045.334L0 981.866 219.935 761.93l63.467 63.468zM498.22 735.628l-94.258-94.258 63.467-63.467 94.257 94.258z"/></svg>